{"title":"CHAPPiE 2015 CAM NEWSOURCE XviD AC3 MURD3R","uid":11748761,"size":755515926,"categoryP":"video","categoryS":"movies","magnet":"?xt=urn:btih:1ee2acbf1c01a7ebb6915d51a3124c08e3ee686c&amp;dn=CHAPPiE+2015+CAM+NEWSOURCE+XviD+AC3+MURD3R&amp;tr=udp%3A%2F%2Ftracker.openbittorrent.com%3A80&amp;tr=udp%3A%2F%2Fopen.demonii.com%3A1337&amp;tr=udp%3A%2F%2Ftracker.coppersurfer.tk%3A6969&amp;tr=udp%3A%2F%2Fexodus.desync.com%3A6969","seeders":12,"leechers":2,"uploader":".BONE.","files":13,"time":1426119258,"description":"CHAPPiE 2015 CAM NEWSOURCE XviD AC3 MURD3R.avi\n\nFormat : AVI\nFormat/Info : Audio Video Interleave\nFile size : 702 MiB\nDuration : 1h 50mn\nOverall bit rate : 889 Kbps\n\nVideo\nID : 0\nFormat : MPEG-4 Visual\nFormat profile : Advanced Simple@L5\nFormat settings, BVOP : 4\nFormat settings, QPel : No\nFormat settings, GMC : No warppoints\nFormat settings, Matrix : Default (MPEG)\nCodec ID : XVID\nCodec ID/Hint : XviD\nDuration : 1h 50mn\nBit rate : 752 Kbps\nWidth : 640 pixels\nHeight : 320 pixels\nDisplay aspect ratio : 2.000\nFrame rate : 25.000 fps\nColor space : YUV\nChroma subsampling : 4:2:0\nBit depth : 8 bits\nScan type : Progressive\nCompression mode : Lossy\nBits/(Pixel*Frame) : 0.147\nStream size : 593 MiB (85%)\nWriting library : XviD 73\n\nAudio\nID : 1\nFormat : AC-3\nFormat/Info : Audio Coding 3\nMode extension : CM (complete main)\nFormat settings, Endianness : Big\nCodec ID : 2000\nDuration : 1h 50mn\nBit rate mode : Constant\nBit rate : 128 Kbps\nChannel(s) : 2 channels\nChannel positions : Front: L R\nSampling rate : 32.0 KHz\nBit depth : 16 bits\nCompression mode : Lossy\nStream size : 101 MiB (14%)\nAlignment : Aligned on interleaves\nInterleave, duration : 48 ms (1.20 video frame)\n\nRESPECT TO ELEKTRI4KA.uniongang.tv FOR ViDEO\nAND eel+TITAN 4 THE AUDIO......THANKS...\nSAMPLE INSIDE....\n &lt;a href=&quot;\nhttp://s20.postimage.org/drrisof0d/vlcsnap_2015_03_11_21h50m25s21.png&quot; rel=&quot;nofollow&quot; target=&quot;_NEW&quot;&gt;\nhttp://s20.postimage.org/drrisof0d/vlcsnap_2015_03_11_21h50m25s21.png&lt;/a&gt; &lt;a href=&quot;\nhttp://s20.postimage.org/p5e23vpj1/vlcsnap_2015_03_11_21h51m21s71.png&quot; rel=&quot;nofollow&quot; target=&quot;_NEW&quot;&gt;\nhttp://s20.postimage.org/p5e23vpj1/vlcsnap_2015_03_11_21h51m21s71.png&lt;/a&gt; &lt;a href=&quot;\nhttp://s20.postimage.org/uuyw1xl31/vlcsnap_2015_03_11_21h50m22s246.png&quot; rel=&quot;nofollow&quot; target=&quot;_NEW&quot;&gt;\nhttp://s20.postimage.org/uuyw1xl31/vlcsnap_2015_03_11_21h50m22s246.png&lt;/a&gt; &lt;a href=&quot;\nhttp://s20.postimage.org/kngcpiyv1/vlcsnap_2015_03_11_21h48m47s72.png&quot; rel=&quot;nofollow&quot; target=&quot;_NEW&quot;&gt;\nhttp://s20.postimage.org/kngcpiyv1/vlcsnap_2015_03_11_21h48m47s72.png&lt;/a&gt; &lt;a href=&quot;\nhttp://s20.postimage.org/6wbvnb9x9/vlcsnap_2015_03_11_21h49m26s202.png&quot; rel=&quot;nofollow&quot; target=&quot;_NEW&quot;&gt;\nhttp://s20.postimage.org/6wbvnb9x9/vlcsnap_2015_03_11_21h49m26s202.png&lt;/a&gt; &lt;a href=&quot;\nhttp://s20.postimage.org/e0towch6l/vlcsnap_2015_03_11_21h49m16s100.png&quot; rel=&quot;nofollow&quot; target=&quot;_NEW&quot;&gt;\nhttp://s20.postimage.org/e0towch6l/vlcsnap_2015_03_11_21h49m16s100.png&lt;/a&gt;","torrent":{"xt":"urn:btih:1ee2acbf1c01a7ebb6915d51a3124c08e3ee686c","amp;dn":"CHAPPiE+2015+CAM+NEWSOURCE+XviD+AC3+MURD3R","amp;tr":["udp%3A%2F%2Ftracker.openbittorrent.com%3A80","udp%3A%2F%2Fopen.demonii.com%3A1337","udp%3A%2F%2Ftracker.coppersurfer.tk%3A6969","udp%3A%2F%2Fexodus.desync.com%3A6969"],"infoHash":"1ee2acbf1c01a7ebb6915d51a3124c08e3ee686c","infoHashBuffer":{"type":"Buffer","data":[30,226,172,191,28,1,167,235,182,145,93,81,163,18,76,8,227,238,104,108]},"announce":[],"urlList":[]}}